<svg width="36" height="36" viewBox="0 0 36 36" fill="none" xmlns="http://www.w3.org/2000/svg">
<path d="M18 0C8.05991 0 0 8.05869 0 18C0 27.9413 8.05912 36 18 36C27.9417 36 36 27.9413 36 18C36 8.05869 27.9417 0 18 0ZM18 5.38221C21.2891 5.38221 23.9544 8.04841 23.9544 11.3361C23.9544 14.6246 21.2891 17.29 18 17.29C14.7125 17.29 12.0472 14.6246 12.0472 11.3361C12.0472 8.04841 14.7125 5.38221 18 5.38221ZM17.996 31.2938C14.7156 31.2938 11.7111 30.0991 9.39375 28.1216C8.82922 27.6401 8.50347 26.934 8.50347 26.1931C8.50347 22.8588 11.202 20.1902 14.5369 20.1902H21.4646C24.8004 20.1902 27.4886 22.8588 27.4886 26.1931C27.4886 26.9348 27.1645 27.6393 26.5991 28.1208C24.2825 30.0991 21.2773 31.2938 17.996 31.2938Z" fill="#2A175F"/>
<path d="M18 5.38221C21.2891 5.38221 23.9544 8.04841 23.9544 11.3361C23.9544 14.6246 21.2891 17.29 18 17.29C14.7125 17.29 12.0472 14.6246 12.0472 11.3361C12.0472 8.04841 14.7125 5.38221 18 5.38221Z" fill="#7250D4"/>
<path d="M17.996 31.2938C14.7156 31.2938 11.7111 30.0991 9.39375 28.1216C8.82922 27.6401 8.50347 26.934 8.50347 26.1931C8.50347 22.8588 11.202 20.1902 14.5369 20.1902H21.4646C24.8004 20.1902 27.4886 22.8588 27.4886 26.1931C27.4886 26.9348 27.1645 27.6393 26.5991 28.1208C24.2825 30.0991 21.2773 31.2938 17.996 31.2938Z" fill="#7250D4"/>
</svg>
