<svg width="30" height="30" viewBox="0 0 30 30" fill="none" xmlns="http://www.w3.org/2000/svg">
<path fill-rule="evenodd" clip-rule="evenodd" d="M15 27C18.35 27 21.1875 25.8375 23.5125 23.5125C25.8375 21.1875 27 18.35 27 15C27 11.65 25.8375 8.8125 23.5125 6.4875C21.1875 4.1625 18.35 3 15 3C11.65 3 8.8125 4.1625 6.4875 6.4875C4.1625 8.8125 3 11.65 3 15C3 18.35 4.1625 21.1875 6.4875 23.5125C8.8125 25.8375 11.65 27 15 27ZM23.475 11.325L12.9 21.9L6.525 15.525L8.625 13.425L12.9 17.7L21.375 9.225L23.475 11.325Z" fill="#0FBA81"/>
<path fill-rule="evenodd" clip-rule="evenodd" d="M9.15 28.8187C10.975 29.6062 12.925 30 15 30C17.075 30 19.025 29.6062 20.85 28.8187C22.675 28.0312 24.2625 26.9625 25.6125 25.6125C26.9625 24.2625 28.0312 22.675 28.8187 20.85C29.6062 19.025 30 17.075 30 15C30 12.925 29.6062 10.975 28.8187 9.15C28.0312 7.325 26.9625 5.7375 25.6125 4.3875C24.2625 3.0375 22.675 1.96875 20.85 1.18125C19.025 0.39375 17.075 0 15 0C12.925 0 10.975 0.39375 9.15 1.18125C7.325 1.96875 5.7375 3.0375 4.3875 4.3875C3.0375 5.7375 1.96875 7.325 1.18125 9.15C0.39375 10.975 0 12.925 0 15C0 17.075 0.39375 19.025 1.18125 20.85C1.96875 22.675 3.0375 24.2625 4.3875 25.6125C5.7375 26.9625 7.325 28.0312 9.15 28.8187ZM23.5125 23.5125C21.1875 25.8375 18.35 27 15 27C11.65 27 8.8125 25.8375 6.4875 23.5125C4.1625 21.1875 3 18.35 3 15C3 11.65 4.1625 8.8125 6.4875 6.4875C8.8125 4.1625 11.65 3 15 3C18.35 3 21.1875 4.1625 23.5125 6.4875C25.8375 8.8125 27 11.65 27 15C27 18.35 25.8375 21.1875 23.5125 23.5125Z" fill="#0FBA81"/>
<path d="M12.9 21.9L23.475 11.325L21.375 9.225L12.9 17.7L8.625 13.425L6.525 15.525L12.9 21.9Z" fill="#F9FAFB"/>
</svg>
