<svg width="20" height="20" viewBox="0 0 20 20" fill="none" xmlns="http://www.w3.org/2000/svg">
<path d="M10 0C4.48583 0 0 4.48583 0 10C0 15.5142 4.48583 20 10 20C15.5142 20 20 15.5142 20 10C20 4.48583 15.5142 0 10 0ZM10 18.3333C5.405 18.3333 1.66667 14.595 1.66667 10C1.66667 5.405 5.405 1.66667 10 1.66667C14.595 1.66667 18.3333 5.405 18.3333 10C18.3333 14.595 14.595 18.3333 10 18.3333ZM11.1492 5.31583L6.22083 10.2442C5.43417 11.0308 5 12.0775 5 13.19V14.1667C5 14.6275 5.3725 15 5.83333 15H6.81C7.9225 15 8.96917 14.5658 9.75583 13.7792L14.6842 8.85083C15.6592 7.87583 15.6592 6.29083 14.6842 5.31583C13.7092 4.34083 12.1242 4.34083 11.1492 5.31583ZM8.5775 12.6008C8.11167 13.0667 7.4675 13.3333 6.81 13.3333H6.66667V13.19C6.66667 12.5325 6.93333 11.8883 7.39917 11.4225L10.28 8.54167L11.4583 9.72L8.5775 12.6008ZM13.5058 7.6725L12.6367 8.54167L11.4583 7.36333L12.3275 6.49417C12.6533 6.16833 13.18 6.16833 13.5058 6.49417C13.8317 6.82 13.8308 7.3475 13.5058 7.6725Z" fill="#F9FAFB"/>
</svg>
