<svg width="27" height="26" viewBox="0 0 27 26" fill="none" xmlns="http://www.w3.org/2000/svg">
<rect x="0.5" width="26" height="26" rx="8" fill="#F9FAFB"/>
<g clip-path="url(#clip0_54_4742)">
<path d="M21.1479 13.1797C21.1479 12.6494 21.1049 12.1164 21.0132 11.5947H13.656V14.5984H17.8691C17.6943 15.5671 17.1326 16.424 16.31 16.9686V18.9175H18.8235C20.2996 17.559 21.1479 15.5528 21.1479 13.1797Z" fill="#4285F4"/>
<path d="M13.6559 20.801C15.7596 20.801 17.5337 20.1102 18.8263 18.9179L16.3128 16.969C15.6135 17.4448 14.7107 17.7142 13.6588 17.7142C11.6239 17.7142 9.89853 16.3414 9.27946 14.4956H6.68567V16.5047C8.00979 19.1386 10.7068 20.801 13.6559 20.801Z" fill="#34A853"/>
<path d="M9.27661 14.4956C8.94988 13.5268 8.94988 12.4778 9.27661 11.5091V9.5H6.68568C5.57938 11.704 5.57938 14.3007 6.68568 16.5047L9.27661 14.4956Z" fill="#FBBC04"/>
<path d="M13.6559 8.28747C14.768 8.27028 15.8428 8.68872 16.6481 9.45683L18.875 7.2299C17.4649 5.90577 15.5934 5.17779 13.6559 5.20072C10.7068 5.20072 8.00979 6.86304 6.68567 9.49982L9.27659 11.5089C9.8928 9.66032 11.621 8.28747 13.6559 8.28747Z" fill="#EA4335"/>
</g>
<defs>
<clipPath id="clip0_54_4742">
<rect width="15.6" height="15.6" fill="white" transform="translate(5.69995 5.2002)"/>
</clipPath>
</defs>
</svg>
