<svg width="36" height="36" viewBox="0 0 36 36" fill="none" xmlns="http://www.w3.org/2000/svg">
<path d="M24 22.8C24 24.5675 22.5349 26 20.7273 26H15.2727C13.4651 26 12 24.5675 12 22.8V19.6C12 18.656 12.4255 17.8165 13.0909 17.2309V14.8C13.0909 12.1536 15.2935 10 18 10C20.7065 10 22.9091 12.1536 22.9091 14.8V17.2309C23.5745 17.8165 24 18.656 24 19.6V22.8ZM16.3636 14.8V16.4H19.6364V14.8C19.6364 13.9179 18.9022 13.2 18 13.2C17.0978 13.2 16.3636 13.9179 16.3636 14.8ZM19.6364 21.2C19.6364 20.3168 18.9033 19.6 18 19.6C17.0967 19.6 16.3636 20.3168 16.3636 21.2C16.3636 22.0832 17.0967 22.8 18 22.8C18.9033 22.8 19.6364 22.0832 19.6364 21.2Z" fill="#EAB308"/>
<circle cx="18" cy="18" r="14.5" stroke="#EAB308"/>
</svg>
