<svg width="48" height="33" viewBox="0 0 48 33" fill="none" xmlns="http://www.w3.org/2000/svg">
<g clip-path="url(#clip0_22_2586)">
<path d="M43.4 0.5H4.6C2.05949 0.5 0 2.55949 0 5.1V27.9C0 30.4405 2.05949 32.5 4.6 32.5H43.4C45.9405 32.5 48 30.4405 48 27.9V5.1C48 2.55949 45.9405 0.5 43.4 0.5Z" fill="#192169"/>
<path d="M16.3999 26.5C21.9228 26.5 26.3999 22.0228 26.3999 16.5C26.3999 10.9772 21.9228 6.5 16.3999 6.5C10.8771 6.5 6.3999 10.9772 6.3999 16.5C6.3999 22.0228 10.8771 26.5 16.3999 26.5Z" fill="#FF0016"/>
<path d="M31.6001 6.49989C30.1634 6.48739 28.7409 6.78461 27.4294 7.37133C26.1179 7.95804 24.9483 8.82047 24.0001 9.89989L22.8001 11.4999H25.0001C25.338 12.1358 25.6062 12.8064 25.8001 13.4999H22.0001C21.7976 14.1508 21.6635 14.8211 21.6001 15.4999H26.4001C26.4175 15.833 26.4175 16.1668 26.4001 16.4999C26.4168 16.833 26.4168 17.1668 26.4001 17.4999H21.6001C21.6635 18.1787 21.7976 18.849 22.0001 19.4999H26.0001C25.8062 20.1934 25.538 20.864 25.2001 21.4999H22.8001L24.0001 23.0999C25.1011 24.353 26.4981 25.3108 28.0639 25.8861C29.6297 26.4613 31.3145 26.6357 32.9649 26.3935C34.6153 26.1512 36.1789 25.4999 37.5133 24.4989C38.8476 23.4979 39.9104 22.179 40.6048 20.6623C41.2992 19.1456 41.6031 17.4793 41.489 15.8151C41.3748 14.1509 40.8461 12.5417 39.9511 11.134C39.0561 9.72637 37.8232 8.56496 36.3646 7.75557C34.906 6.94618 33.2681 6.51452 31.6001 6.49989Z" fill="#FFA916"/>
</g>
<defs>
<clipPath id="clip0_22_2586">
<rect width="48" height="32" fill="white" transform="translate(0 0.5)"/>
</clipPath>
</defs>
</svg>
