<svg width="12" height="12" viewBox="0 0 12 12" fill="none" xmlns="http://www.w3.org/2000/svg">
<path d="M0.663108 6.19998L2.44311 7.49998L1.76711 9.59348C1.65786 9.91817 1.65648 10.2695 1.76316 10.595C1.86985 10.9206 2.07888 11.2029 2.35911 11.4C2.63453 11.6034 2.9683 11.7123 3.31069 11.7106C3.65307 11.7089 3.98573 11.5966 4.25911 11.3905L5.99961 10.1095L7.74061 11.389C8.01554 11.5912 8.34751 11.701 8.68879 11.7027C9.03008 11.7044 9.36311 11.5978 9.63999 11.3982C9.91688 11.1987 10.1234 10.9165 10.2298 10.5922C10.3361 10.2679 10.337 9.91826 10.2321 9.59348L9.55611 7.49998L11.3361 6.19998C11.6107 5.99923 11.8148 5.71685 11.9193 5.39317C12.0238 5.06949 12.0233 4.72107 11.9179 4.39767C11.8126 4.07427 11.6077 3.79244 11.3326 3.59243C11.0575 3.39242 10.7262 3.28446 10.3861 3.28398H8.19961L7.53611 1.21598C7.43177 0.890456 7.22674 0.606484 6.95059 0.40501C6.67444 0.203536 6.34144 0.0949707 5.99961 0.0949707C5.65777 0.0949707 5.32477 0.203536 5.04862 0.40501C4.77247 0.606484 4.56745 0.890456 4.46311 1.21598L3.79961 3.28398H1.61511C1.27498 3.28446 0.943704 3.39242 0.668598 3.59243C0.393492 3.79244 0.188629 4.07427 0.0832689 4.39767C-0.0220908 4.72107 -0.0225571 5.06949 0.0819365 5.39317C0.18643 5.71685 0.390539 5.99923 0.665108 6.19998H0.663108Z" fill="#F9FAFB"/>
</svg>
