<svg width="24" height="24" viewBox="0 0 24 24" fill="none" xmlns="http://www.w3.org/2000/svg">
<path fill-rule="evenodd" clip-rule="evenodd" d="M12 21C7.038 21 3 16.962 3 12C3 7.038 7.038 3 12 3C16.962 3 21 7.038 21 12C21 16.962 16.963 21 12 21ZM16.122 12C16.91 12 17.307 11.05 16.754 10.489H16.752L12.55 6.231C12.246 5.923 11.75 5.923 11.446 6.231L7.244 10.489C6.691 11.05 7.088 12 7.876 12H10.499V16.5C10.499 17.329 11.17 18 11.999 18C12.828 18 13.499 17.329 13.499 16.5V12H16.122Z" fill="#2563EB"/>
<path fill-rule="evenodd" clip-rule="evenodd" d="M0 12C0 5.383 5.383 0 12 0C18.617 0 24 5.383 24 12C24 18.617 18.617 24 12 24C5.383 24 0 18.617 0 12ZM3 12C3 16.962 7.038 21 12 21C16.963 21 21 16.962 21 12C21 7.038 16.962 3 12 3C7.038 3 3 7.038 3 12Z" fill="#2563EB"/>
<path d="M16.754 10.489C17.307 11.05 16.91 12 16.122 12H13.499V16.5C13.499 17.329 12.828 18 11.999 18C11.17 18 10.499 17.329 10.499 16.5V12H7.876C7.088 12 6.691 11.05 7.244 10.489L11.446 6.231C11.75 5.923 12.246 5.923 12.55 6.231L16.752 10.489H16.754Z" fill="#F9FAFB"/>
</svg>
