<svg width="48" height="33" viewBox="0 0 48 33" fill="none" xmlns="http://www.w3.org/2000/svg">
<g clip-path="url(#clip0_22_2598)">
<path d="M48 6.5H0V26.5H48V6.5Z" fill="#F9FAFB"/>
<path d="M43.4 0.5H4.6C3.99592 0.5 3.39775 0.618983 2.83966 0.850155C2.28156 1.08133 1.77446 1.42016 1.34731 1.84731C0.92016 2.27446 0.581326 2.78156 0.350155 3.33966C0.118983 3.89775 0 4.49592 0 5.1V6.5H48V5.1C48 4.49592 47.881 3.89775 47.6498 3.33966C47.4187 2.78156 47.0798 2.27446 46.6527 1.84731C46.2255 1.42016 45.7184 1.08133 45.1603 0.850155C44.6022 0.618983 44.0041 0.5 43.4 0.5Z" fill="#0A5296"/>
<path d="M0 27.9C0 29.12 0.484642 30.29 1.34731 31.1527C2.20998 32.0154 3.38 32.5 4.6 32.5H43.4C44.62 32.5 45.79 32.0154 46.6527 31.1527C47.5154 30.29 48 29.12 48 27.9V26.5H0V27.9Z" fill="#F4A428"/>
<path d="M17.2 22.5L19.2 10.5H22.4L20.4 22.5H17.2Z" fill="#00589F"/>
<path d="M31.7999 10.9L28.9999 10.5C25.7999 10.5 23.5999 12.1 23.5999 14.3C23.5999 16.5 25.1999 16.9 26.3999 17.5C27.5999 18.1 27.9999 18.5 27.9999 18.9C27.9999 19.3 26.9999 20.1 26.1999 20.1C25.1667 20.1377 24.1391 19.9322 23.1999 19.5H22.7999L22.3999 22.1C23.5655 22.4514 24.7856 22.5869 25.9999 22.5C29.3999 22.5 31.3999 20.9 31.5999 18.5C31.7999 16.1 30.7999 16.1 28.9999 15.3C27.1999 14.5 27.1999 14.5 27.1999 13.9C27.1999 13.3 27.7999 12.9 28.9999 12.9L31.3999 13.3H31.5999L31.9999 10.7" fill="#00589F"/>
<path d="M40 10.5H37.5999C37.2445 10.5194 36.9027 10.6437 36.6179 10.8573C36.3332 11.0709 36.1181 11.3642 36 11.7L31.2 22.5H34.5999L35.2 20.7H39.2L39.5999 22.5H42.5999L40 10.5ZM36 18.5C36.514 17.4102 36.9161 16.271 37.2 15.1L37.5999 13.9V15.1C37.8078 16.2464 38.0749 17.3812 38.4 18.5H36Z" fill="#00589F"/>
<path d="M14.6001 10.5L11.4001 18.5L11.0001 16.9C10.1839 14.8069 8.61445 13.0948 6.6001 12.1L9.6001 22.5H12.8001L18.0001 10.5H14.0001" fill="#00589F"/>
<path d="M7.9999 10.5H3.3999V10.9C5.07243 11.2448 6.6369 11.9886 7.96014 13.0681C9.28338 14.1476 10.3262 15.5308 10.9999 17.1L9.9999 11.5C9.91113 11.2013 9.72523 10.9407 9.47164 10.7596C9.21805 10.5784 8.91127 10.4871 8.5999 10.5" fill="#F9A51A"/>
</g>
<defs>
<clipPath id="clip0_22_2598">
<rect width="48" height="32" fill="white" transform="translate(0 0.5)"/>
</clipPath>
</defs>
</svg>
