<svg width="32" height="29" viewBox="0 0 32 29" fill="none" xmlns="http://www.w3.org/2000/svg">
<path d="M30.7733 19.44L20 2.42668C19.0933 1.12001 17.5866 0.333344 16 0.333344C14.4133 0.333344 12.9066 1.10668 11.96 2.46668L1.23997 19.4133C-0.120034 21.36 -0.373367 23.6933 0.573299 25.4933C1.50663 27.2933 3.46663 28.32 5.91997 28.32H26.08C28.5466 28.32 30.4933 27.2933 31.4266 25.4933C32.36 23.6933 32.1066 21.3733 30.7733 19.44ZM14.6666 8.33334C14.6666 7.60001 15.2666 7.00001 16 7.00001C16.7333 7.00001 17.3333 7.60001 17.3333 8.33334V16.3333C17.3333 17.0667 16.7333 17.6667 16 17.6667C15.2666 17.6667 14.6666 17.0667 14.6666 16.3333V8.33334ZM16 24.3333C14.8933 24.3333 14 23.44 14 22.3333C14 21.2267 14.8933 20.3333 16 20.3333C17.1066 20.3333 18 21.2267 18 22.3333C18 23.44 17.1066 24.3333 16 24.3333Z" fill="#EAB308"/>
<path d="M14.6666 8.33334C14.6666 7.60001 15.2666 7.00001 16 7.00001C16.7333 7.00001 17.3333 7.60001 17.3333 8.33334V16.3333C17.3333 17.0667 16.7333 17.6667 16 17.6667C15.2666 17.6667 14.6666 17.0667 14.6666 16.3333V8.33334Z" fill="#F9FAFB"/>
<path d="M16 24.3333C14.8933 24.3333 14 23.44 14 22.3333C14 21.2267 14.8933 20.3333 16 20.3333C17.1066 20.3333 18 21.2267 18 22.3333C18 23.44 17.1066 24.3333 16 24.3333Z" fill="#F9FAFB"/>
</svg>
