<svg width="32" height="32" viewBox="0 0 32 32" fill="none" xmlns="http://www.w3.org/2000/svg">
<path fill-rule="evenodd" clip-rule="evenodd" d="M29.3334 19.3133C29.3334 20.7387 28.7788 22.0773 27.7708 23.0853L23.0841 27.772C22.0761 28.7787 20.7374 29.3333 19.3134 29.3333H12.6854C11.2614 29.3333 9.92278 28.7787 8.91478 27.772L4.22811 23.0853C3.22011 22.0787 2.66545 20.74 2.66545 19.3147V12.6867C2.66545 11.2613 3.22011 9.92267 4.22811 8.91467L8.91478 4.228C9.92278 3.22133 11.2614 2.66667 12.6854 2.66667H19.3134C20.7374 2.66667 22.0761 3.22133 23.0841 4.228L27.7708 8.91467C28.7788 9.92133 29.3334 11.26 29.3334 12.6853V19.3133ZM14.6668 8V18.6667C14.6668 19.4027 15.2628 20 16.0001 20C16.7374 20 17.3334 19.4027 17.3334 18.6667V8C17.3334 7.264 16.7374 6.66667 16.0001 6.66667C15.2628 6.66667 14.6668 7.264 14.6668 8ZM16.0001 25.3333C17.1041 25.3333 18.0001 24.4373 18.0001 23.3333C18.0001 22.2293 17.1041 21.3333 16.0001 21.3333C14.8961 21.3333 14.0001 22.2293 14.0001 23.3333C14.0001 24.4373 14.8961 25.3333 16.0001 25.3333Z" fill="#D41976"/>
<path fill-rule="evenodd" clip-rule="evenodd" d="M29.6561 7.02933L24.9694 2.34267C23.4588 0.832 21.4494 0 19.3134 0H12.6854C10.5481 0 8.54011 0.832 7.02945 2.34267L2.34278 7.028C0.830779 8.53867 -0.0012207 10.548 -0.0012207 12.6853V19.3133C-0.0012207 21.4507 0.830779 23.46 2.34278 24.9707L7.02945 29.6573C8.54011 31.168 10.5494 32 12.6854 32H19.3134C21.4508 32 23.4588 31.168 24.9694 29.6573L29.6561 24.972C31.1681 23.4613 32.0001 21.452 32.0001 19.3147V12.6867C32.0001 10.5493 31.1681 8.54 29.6561 7.02933ZM29.3334 19.3133C29.3334 20.7387 28.7788 22.0773 27.7708 23.0853L23.0841 27.772C22.0761 28.7787 20.7374 29.3333 19.3134 29.3333H12.6854C11.2614 29.3333 9.92278 28.7787 8.91478 27.772L4.22811 23.0853C3.22011 22.0787 2.66545 20.74 2.66545 19.3147V12.6867C2.66545 11.2613 3.22011 9.92267 4.22811 8.91467L8.91478 4.228C9.92278 3.22133 11.2614 2.66667 12.6854 2.66667H19.3134C20.7374 2.66667 22.0761 3.22133 23.0841 4.228L27.7708 8.91467C28.7788 9.92133 29.3334 11.26 29.3334 12.6853V19.3133Z" fill="#D41976"/>
<path d="M14.6668 18.6667V8C14.6668 7.264 15.2628 6.66667 16.0001 6.66667C16.7374 6.66667 17.3334 7.264 17.3334 8V18.6667C17.3334 19.4027 16.7374 20 16.0001 20C15.2628 20 14.6668 19.4027 14.6668 18.6667Z" fill="#F9FAFB"/>
<path d="M18.0001 23.3333C18.0001 24.4373 17.1041 25.3333 16.0001 25.3333C14.8961 25.3333 14.0001 24.4373 14.0001 23.3333C14.0001 22.2293 14.8961 21.3333 16.0001 21.3333C17.1041 21.3333 18.0001 22.2293 18.0001 23.3333Z" fill="#F9FAFB"/>
</svg>
